<?xml version="1.0" encoding="UTF-8"?>
<!DOCTYPE svg PUBLIC "-//W3C//DTD SVG 1.1//EN" "http://www.w3.org/Graphics/SVG/1.1/DTD/svg11.dtd">
<svg xmlns="http://www.w3.org/2000/svg" version="1.1" width="750px" height="750px" style="shape-rendering:geometricPrecision; text-rendering:geometricPrecision; image-rendering:optimizeQuality; fill-rule:evenodd; clip-rule:evenodd" xmlns:xlink="http://www.w3.org/1999/xlink">
<g><path style="opacity:1" fill="#742FFF" d="M 323.5,393.5 C 316.528,409.767 309.862,426.101 303.5,442.5C 269.104,353.988 234.104,265.655 198.5,177.5C 145.604,307.504 93.2704,437.837 41.5,568.5C 63.8234,569.5 86.1567,569.833 108.5,569.5C 145.154,476.501 182.154,383.501 219.5,290.5C 220.799,291.09 221.632,292.09 222,293.5C 226.333,304.167 230.667,314.833 235,325.5C 236.655,329.432 237.655,333.432 238,337.5C 203.99,421.831 170.323,506.164 137,590.5C 134.441,593.531 131.274,595.698 127.5,597C 88.5,597.667 49.5,597.667 10.5,597C 6.0483,594.713 2.38164,591.546 -0.5,587.5C -0.5,584.833 -0.5,582.167 -0.5,579.5C 60.4534,428.499 120.953,277.166 181,125.5C 182.793,122.705 184.96,120.205 187.5,118C 197.731,113.29 206.565,115.124 214,123.5C 249.844,211.872 285.178,300.538 320,389.5C 320.498,391.544 321.665,392.878 323.5,393.5 Z"/></g>
<g><path style="opacity:1" fill="#742FFF" d="M 374.5,263.5 C 368.342,279.987 362.008,296.321 355.5,312.5C 338.535,267.095 320.702,222.095 302,177.5C 294.667,194.833 287.333,212.167 280,229.5C 274.204,215.119 268.204,200.786 262,186.5C 268.98,165.244 276.98,144.244 286,123.5C 296.625,112.84 307.292,112.84 318,123.5C 336.982,170.317 355.815,216.983 374.5,263.5 Z"/></g>
<g><path style="opacity:1" fill="#FAFF00" d="M 393.5,310.5 C 386.794,326.271 380.461,342.271 374.5,358.5C 362.923,385.89 351.923,413.556 341.5,441.5C 334.99,457.016 328.657,472.682 322.5,488.5C 311.642,515.069 300.976,541.736 290.5,568.5C 311.823,569.5 333.156,569.833 354.5,569.5C 356.606,568.434 358.106,566.767 359,564.5C 364.075,551.104 369.242,537.77 374.5,524.5C 386.032,496.761 397.032,468.761 407.5,440.5C 414.156,424.876 420.823,409.209 427.5,393.5C 462.369,304.728 497.536,216.061 533,127.5C 534.123,124.751 535.623,122.251 537.5,120C 553.901,111.358 565.068,115.858 571,133.5C 630.059,282.878 689.559,431.878 749.5,580.5C 749.5,582.5 749.5,584.5 749.5,586.5C 746.932,591.564 742.932,595.064 737.5,597C 698.5,597.667 659.5,597.667 620.5,597C 617.217,595.439 614.383,593.273 612,590.5C 578.309,505.793 544.642,421.127 511,336.5C 510.333,335.167 510.333,333.833 511,332.5C 516.619,318.302 522.619,304.302 529,290.5C 566.578,382.894 603.578,475.561 640,568.5C 662.091,569.494 684.258,569.827 706.5,569.5C 702.625,557.769 698.458,546.102 694,534.5C 646.457,415.369 598.624,296.369 550.5,177.5C 515.326,265.005 480.326,352.672 445.5,440.5C 439.246,456.912 432.579,473.245 425.5,489.5C 415.459,515.92 405.126,542.253 394.5,568.5C 391.796,575.762 388.963,583.096 386,590.5C 382.577,594.479 378.411,596.812 373.5,597.5C 335.499,597.667 297.499,597.5 259.5,597C 255.532,596.036 252.365,593.869 250,590.5C 249.333,585.5 249.333,580.5 250,575.5C 267.923,531.239 285.756,486.906 303.5,442.5C 309.862,426.101 316.528,409.767 323.5,393.5C 333.775,366.341 344.442,339.341 355.5,312.5C 362.008,296.321 368.342,279.987 374.5,263.5C 393.32,216.248 412.487,168.914 432,121.5C 442.929,112.948 453.262,113.615 463,123.5C 471.47,144.045 479.636,164.711 487.5,185.5C 481.069,200.031 474.903,214.698 469,229.5C 461.618,212.695 454.618,195.695 448,178.5C 447.333,177.167 446.667,177.167 446,178.5C 428.408,222.439 410.908,266.439 393.5,310.5 Z"/></g>
<g><path style="opacity:1" fill="#742FFF" d="M 393.5,310.5 C 404.099,337.797 414.599,365.13 425,392.5C 425.342,394.619 426.175,394.953 427.5,393.5C 420.823,409.209 414.156,424.876 407.5,440.5C 396.875,412.947 385.875,385.614 374.5,358.5C 380.461,342.271 386.794,326.271 393.5,310.5 Z"/></g>
<g><path style="opacity:1" fill="#742FFF" d="M 341.5,441.5 C 352.282,469.376 363.282,497.043 374.5,524.5C 369.242,537.77 364.075,551.104 359,564.5C 358.106,566.767 356.606,568.434 354.5,569.5C 344.069,542.321 333.402,515.321 322.5,488.5C 328.657,472.682 334.99,457.016 341.5,441.5 Z"/></g>
<g><path style="opacity:1" fill="#742FFF" d="M 445.5,440.5 C 462.418,486.155 480.252,531.488 499,576.5C 502.37,586.4 499.203,593.233 489.5,597C 450.835,597.5 412.168,597.667 373.5,597.5C 378.411,596.812 382.577,594.479 386,590.5C 388.963,583.096 391.796,575.762 394.5,568.5C 415.67,569.828 437.004,569.828 458.5,568.5C 448.711,544.592 439.211,520.592 430,496.5C 428.946,493.686 427.446,491.353 425.5,489.5C 432.579,473.245 439.246,456.912 445.5,440.5 Z"/></g>
</svg>
