{
	"asset":{
		"generator":"Khronos glTF Blender I/O v3.5.30",
		"version":"2.0"
	},
	"scene":0,
	"scenes":[
		{
			"name":"Scene",
			"nodes":[
				4
			]
		}
	],
	"nodes":[
		{
			"mesh":0,
			"name":"Cylinder.002",
			"rotation":[
				-0.18071874976158142,
				-0.3381754457950592,
				0.6836012601852417,
				0.6210212707519531
			],
			"scale":[
				-0.014347085729241371,
				-0.12519343197345734,
				-0.014347086660563946
			],
			"translation":[
				0.02327124774456024,
				0.019983995705842972,
				0.024576827883720398
			]
		},
		{
			"mesh":1,
			"name":"Cylinder.003",
			"rotation":[
				-0.18071874976158142,
				-0.3381754457950592,
				0.6836012601852417,
				0.6210212707519531
			],
			"scale":[
				-0.014347085729241371,
				-0.12519343197345734,
				-0.014347086660563946
			],
			"translation":[
				0.02232212759554386,
				-0.27028894424438477,
				0.023389682173728943
			]
		},
		{
			"mesh":2,
			"name":"finy",
			"rotation":[
				-0.5000000596046448,
				0.4999999403953552,
				-0.5,
				0.5000000596046448
			],
			"scale":[
				0.029999999329447746,
				0.029999999329447746,
				0.0020000000949949026
			],
			"translation":[
				0,
				-0.33669933676719666,
				-0.07429050654172897
			]
		},
		{
			"mesh":3,
			"name":"motor",
			"rotation":[
				0.9513677954673767,
				0.004061274230480194,
				-0.3077535033226013,
				0.013063982129096985
			],
			"scale":[
				-0.019749894738197327,
				-0.04459074139595032,
				-0.019780173897743225
			],
			"translation":[
				-0.0005617227288894355,
				-0.3501114547252655,
				-0.000374527124222368
			]
		},
		{
			"children":[
				0,
				1,
				2,
				3
			],
			"mesh":4,
			"name":"trup",
			"rotation":[
				-0.013382804580032825,
				-0.04094064608216286,
				0.007389313541352749,
				0.9990447163581848
			]
		}
	],
	"materials":[
		{
			"doubleSided":true,
			"name":"Material.007",
			"pbrMetallicRoughness":{
				"baseColorFactor":[
					0.800000011920929,
					0.800000011920929,
					0.800000011920929,
					1
				],
				"metallicFactor":0,
				"roughnessFactor":0.5
			}
		},
		{
			"doubleSided":true,
			"name":"main_pla",
			"pbrMetallicRoughness":{
				"baseColorFactor":[
					0.10405047982931137,
					0.006604041438549757,
					0.8000000715255737,
					1
				],
				"metallicFactor":0,
				"roughnessFactor":0.2752293348312378
			}
		},
		{
			"doubleSided":true,
			"name":"metal.002",
			"pbrMetallicRoughness":{
				"baseColorFactor":[
					0.40435707569122314,
					0.40435707569122314,
					0.40435707569122314,
					1
				],
				"roughnessFactor":0.5
			}
		},
		{
			"doubleSided":true,
			"name":"Material.001",
			"pbrMetallicRoughness":{
				"baseColorFactor":[
					0.12260907888412476,
					0.12260907888412476,
					0.12260907888412476,
					1
				],
				"metallicFactor":0.7431192398071289,
				"roughnessFactor":0.18807339668273926
			}
		},
		{
			"doubleSided":true,
			"name":"white_pla",
			"pbrMetallicRoughness":{
				"baseColorFactor":[
					0.8000000715255737,
					0.7729566097259521,
					0.7447136640548706,
					1
				],
				"metallicFactor":0,
				"roughnessFactor":0.5
			}
		}
	],
	"meshes":[
		{
			"name":"Cylinder.008",
			"primitives":[
				{
					"attributes":{
						"POSITION":0,
						"TEXCOORD_0":1,
						"NORMAL":2
					},
					"indices":3,
					"material":0
				}
			]
		},
		{
			"name":"Cylinder.004",
			"primitives":[
				{
					"attributes":{
						"POSITION":4,
						"TEXCOORD_0":5,
						"NORMAL":6
					},
					"indices":3,
					"material":1
				}
			]
		},
		{
			"name":"Cube.003",
			"primitives":[
				{
					"attributes":{
						"POSITION":7,
						"TEXCOORD_0":8,
						"NORMAL":9
					},
					"indices":10,
					"material":1
				}
			]
		},
		{
			"name":"Cylinder.005",
			"primitives":[
				{
					"attributes":{
						"POSITION":11,
						"TEXCOORD_0":12,
						"NORMAL":13
					},
					"indices":14,
					"material":2
				},
				{
					"attributes":{
						"POSITION":15,
						"TEXCOORD_0":16,
						"NORMAL":17
					},
					"indices":18,
					"material":3
				}
			]
		},
		{
			"name":"Cylinder",
			"primitives":[
				{
					"attributes":{
						"POSITION":19,
						"TEXCOORD_0":20,
						"NORMAL":21
					},
					"indices":22,
					"material":1
				},
				{
					"attributes":{
						"POSITION":23,
						"TEXCOORD_0":24,
						"NORMAL":25
					},
					"indices":26,
					"material":4
				}
			]
		}
	],
	"accessors":[
		{
			"bufferView":0,
			"componentType":5126,
			"count":260,
			"max":[
				0.5391057729721069,
				0.039251312613487244,
				0.5503132343292236
			],
			"min":[
				-0.5615140199661255,
				-0.03386971354484558,
				-0.5503064393997192
			],
			"type":"VEC3"
		},
		{
			"bufferView":1,
			"componentType":5126,
			"count":260,
			"type":"VEC2"
		},
		{
			"bufferView":2,
			"componentType":5126,
			"count":260,
			"type":"VEC3"
		},
		{
			"bufferView":3,
			"componentType":5123,
			"count":756,
			"type":"SCALAR"
		},
		{
			"bufferView":4,
			"componentType":5126,
			"count":260,
			"max":[
				0.5391057729721069,
				0.039251312613487244,
				0.5503132343292236
			],
			"min":[
				-0.5615140199661255,
				-0.03894805908203125,
				-0.5503064393997192
			],
			"type":"VEC3"
		},
		{
			"bufferView":5,
			"componentType":5126,
			"count":260,
			"type":"VEC2"
		},
		{
			"bufferView":6,
			"componentType":5126,
			"count":260,
			"type":"VEC3"
		},
		{
			"bufferView":7,
			"componentType":5126,
			"count":192,
			"max":[
				4.058037281036377,
				0.7866788506507874,
				48.9454345703125
			],
			"min":[
				-0.49404263496398926,
				-5.739385604858398,
				-48.94552993774414
			],
			"type":"VEC3"
		},
		{
			"bufferView":8,
			"componentType":5126,
			"count":192,
			"type":"VEC2"
		},
		{
			"bufferView":9,
			"componentType":5126,
			"count":192,
			"type":"VEC3"
		},
		{
			"bufferView":10,
			"componentType":5123,
			"count":288,
			"type":"SCALAR"
		},
		{
			"bufferView":11,
			"componentType":5126,
			"count":228,
			"max":[
				1,
				-0.7167261838912964,
				1
			],
			"min":[
				-1,
				-0.999999463558197,
				-1
			],
			"type":"VEC3"
		},
		{
			"bufferView":12,
			"componentType":5126,
			"count":228,
			"type":"VEC2"
		},
		{
			"bufferView":13,
			"componentType":5126,
			"count":228,
			"type":"VEC3"
		},
		{
			"bufferView":14,
			"componentType":5123,
			"count":666,
			"type":"SCALAR"
		},
		{
			"bufferView":15,
			"componentType":5126,
			"count":32,
			"max":[
				0.364228218793869,
				-0.9297823905944824,
				0.34168776869773865
			],
			"min":[
				-0.34008339047431946,
				-0.9383323192596436,
				-0.36262378096580505
			],
			"type":"VEC3"
		},
		{
			"bufferView":16,
			"componentType":5126,
			"count":32,
			"type":"VEC2"
		},
		{
			"bufferView":17,
			"componentType":5126,
			"count":32,
			"type":"VEC3"
		},
		{
			"bufferView":18,
			"componentType":5123,
			"count":90,
			"type":"SCALAR"
		},
		{
			"bufferView":19,
			"componentType":5126,
			"count":2404,
			"max":[
				0.029665164649486542,
				0.2083948254585266,
				0.031200259923934937
			],
			"min":[
				-0.028864702209830284,
				-0.38260000944137573,
				-0.0280391164124012
			],
			"type":"VEC3"
		},
		{
			"bufferView":20,
			"componentType":5126,
			"count":2404,
			"type":"VEC2"
		},
		{
			"bufferView":21,
			"componentType":5126,
			"count":2404,
			"type":"VEC3"
		},
		{
			"bufferView":22,
			"componentType":5123,
			"count":11367,
			"type":"SCALAR"
		},
		{
			"bufferView":23,
			"componentType":5126,
			"count":452,
			"max":[
				0.029525969177484512,
				0.05291294306516647,
				0.03107091784477234
			],
			"min":[
				-0.028725454583764076,
				-0.052383240312337875,
				-0.02717987820506096
			],
			"type":"VEC3"
		},
		{
			"bufferView":24,
			"componentType":5126,
			"count":452,
			"type":"VEC2"
		},
		{
			"bufferView":25,
			"componentType":5126,
			"count":452,
			"type":"VEC3"
		},
		{
			"bufferView":26,
			"componentType":5123,
			"count":948,
			"type":"SCALAR"
		}
	],
	"bufferViews":[
		{
			"buffer":0,
			"byteLength":3120,
			"byteOffset":0,
			"target":34962
		},
		{
			"buffer":0,
			"byteLength":2080,
			"byteOffset":3120,
			"target":34962
		},
		{
			"buffer":0,
			"byteLength":3120,
			"byteOffset":5200,
			"target":34962
		},
		{
			"buffer":0,
			"byteLength":1512,
			"byteOffset":8320,
			"target":34963
		},
		{
			"buffer":0,
			"byteLength":3120,
			"byteOffset":9832,
			"target":34962
		},
		{
			"buffer":0,
			"byteLength":2080,
			"byteOffset":12952,
			"target":34962
		},
		{
			"buffer":0,
			"byteLength":3120,
			"byteOffset":15032,
			"target":34962
		},
		{
			"buffer":0,
			"byteLength":2304,
			"byteOffset":18152,
			"target":34962
		},
		{
			"buffer":0,
			"byteLength":1536,
			"byteOffset":20456,
			"target":34962
		},
		{
			"buffer":0,
			"byteLength":2304,
			"byteOffset":21992,
			"target":34962
		},
		{
			"buffer":0,
			"byteLength":576,
			"byteOffset":24296,
			"target":34963
		},
		{
			"buffer":0,
			"byteLength":2736,
			"byteOffset":24872,
			"target":34962
		},
		{
			"buffer":0,
			"byteLength":1824,
			"byteOffset":27608,
			"target":34962
		},
		{
			"buffer":0,
			"byteLength":2736,
			"byteOffset":29432,
			"target":34962
		},
		{
			"buffer":0,
			"byteLength":1332,
			"byteOffset":32168,
			"target":34963
		},
		{
			"buffer":0,
			"byteLength":384,
			"byteOffset":33500,
			"target":34962
		},
		{
			"buffer":0,
			"byteLength":256,
			"byteOffset":33884,
			"target":34962
		},
		{
			"buffer":0,
			"byteLength":384,
			"byteOffset":34140,
			"target":34962
		},
		{
			"buffer":0,
			"byteLength":180,
			"byteOffset":34524,
			"target":34963
		},
		{
			"buffer":0,
			"byteLength":28848,
			"byteOffset":34704,
			"target":34962
		},
		{
			"buffer":0,
			"byteLength":19232,
			"byteOffset":63552,
			"target":34962
		},
		{
			"buffer":0,
			"byteLength":28848,
			"byteOffset":82784,
			"target":34962
		},
		{
			"buffer":0,
			"byteLength":22734,
			"byteOffset":111632,
			"target":34963
		},
		{
			"buffer":0,
			"byteLength":5424,
			"byteOffset":134368,
			"target":34962
		},
		{
			"buffer":0,
			"byteLength":3616,
			"byteOffset":139792,
			"target":34962
		},
		{
			"buffer":0,
			"byteLength":5424,
			"byteOffset":143408,
			"target":34962
		},
		{
			"buffer":0,
			"byteLength":1896,
			"byteOffset":148832,
			"target":34963
		}
	],
	"buffers":[
		{
			"byteLength":150728,
			"uri":"data:application/octet-stream;base64,"
		}
	]
}
