{
	"asset":{
		"generator":"Khronos glTF Blender I/O v3.5.30",
		"version":"2.0"
	},
	"scene":0,
	"scenes":[
		{
			"name":"Scene",
			"nodes":[
				2
			]
		}
	],
	"nodes":[
		{
			"mesh":0,
			"name":"Cylinder",
			"rotation":[
				0.9513677954673767,
				0.004061238374561071,
				-0.30775341391563416,
				0.01306387223303318
			],
			"scale":[
				-0.019749896600842476,
				-0.04459074139595032,
				-0.019780173897743225
			],
			"translation":[
				0,
				-0.3501114845275879,
				0
			]
		},
		{
			"mesh":1,
			"name":"finy",
			"rotation":[
				-0.5000000596046448,
				0.4999999403953552,
				-0.5,
				0.5000000596046448
			],
			"scale":[
				0.029999999329447746,
				0.029999999329447746,
				0.0020000000949949026
			],
			"translation":[
				0,
				-0.33669933676719666,
				-0.07429050654172897
			]
		},
		{
			"children":[
				0,
				1
			],
			"mesh":2,
			"name":"trup",
			"rotation":[
				0,
				0,
				0.7071066498756409,
				0.70710688829422
			]
		}
	],
	"meshes":[
		{
			"name":"Cylinder.001",
			"primitives":[
				{
					"attributes":{
						"POSITION":0,
						"TEXCOORD_0":1,
						"NORMAL":2
					},
					"indices":3
				}
			]
		},
		{
			"name":"Cube.003",
			"primitives":[
				{
					"attributes":{
						"POSITION":4,
						"TEXCOORD_0":5,
						"NORMAL":6
					},
					"indices":7
				}
			]
		},
		{
			"name":"Cylinder",
			"primitives":[
				{
					"attributes":{
						"POSITION":8,
						"TEXCOORD_0":9,
						"NORMAL":10
					},
					"indices":11
				}
			]
		}
	],
	"accessors":[
		{
			"bufferView":0,
			"componentType":5126,
			"count":130,
			"max":[
				1,
				-0.7167267203330994,
				1
			],
			"min":[
				-1,
				-1,
				-1
			],
			"type":"VEC3"
		},
		{
			"bufferView":1,
			"componentType":5126,
			"count":130,
			"type":"VEC2"
		},
		{
			"bufferView":2,
			"componentType":5126,
			"count":130,
			"type":"VEC3"
		},
		{
			"bufferView":3,
			"componentType":5123,
			"count":372,
			"type":"SCALAR"
		},
		{
			"bufferView":4,
			"componentType":5126,
			"count":192,
			"max":[
				4.058037281036377,
				0.7866788506507874,
				48.9454345703125
			],
			"min":[
				-0.49404263496398926,
				-5.739385604858398,
				-48.94552993774414
			],
			"type":"VEC3"
		},
		{
			"bufferView":5,
			"componentType":5126,
			"count":192,
			"type":"VEC2"
		},
		{
			"bufferView":6,
			"componentType":5126,
			"count":192,
			"type":"VEC3"
		},
		{
			"bufferView":7,
			"componentType":5123,
			"count":288,
			"type":"SCALAR"
		},
		{
			"bufferView":8,
			"componentType":5126,
			"count":2224,
			"max":[
				0.033360499888658524,
				0.21060633659362793,
				0.033360421657562256
			],
			"min":[
				-0.03336033597588539,
				-0.38260000944137573,
				-0.03336041420698166
			],
			"type":"VEC3"
		},
		{
			"bufferView":9,
			"componentType":5126,
			"count":2224,
			"type":"VEC2"
		},
		{
			"bufferView":10,
			"componentType":5126,
			"count":2224,
			"type":"VEC3"
		},
		{
			"bufferView":11,
			"componentType":5123,
			"count":10590,
			"type":"SCALAR"
		}
	],
	"bufferViews":[
		{
			"buffer":0,
			"byteLength":1560,
			"byteOffset":0,
			"target":34962
		},
		{
			"buffer":0,
			"byteLength":1040,
			"byteOffset":1560,
			"target":34962
		},
		{
			"buffer":0,
			"byteLength":1560,
			"byteOffset":2600,
			"target":34962
		},
		{
			"buffer":0,
			"byteLength":744,
			"byteOffset":4160,
			"target":34963
		},
		{
			"buffer":0,
			"byteLength":2304,
			"byteOffset":4904,
			"target":34962
		},
		{
			"buffer":0,
			"byteLength":1536,
			"byteOffset":7208,
			"target":34962
		},
		{
			"buffer":0,
			"byteLength":2304,
			"byteOffset":8744,
			"target":34962
		},
		{
			"buffer":0,
			"byteLength":576,
			"byteOffset":11048,
			"target":34963
		},
		{
			"buffer":0,
			"byteLength":26688,
			"byteOffset":11624,
			"target":34962
		},
		{
			"buffer":0,
			"byteLength":17792,
			"byteOffset":38312,
			"target":34962
		},
		{
			"buffer":0,
			"byteLength":26688,
			"byteOffset":56104,
			"target":34962
		},
		{
			"buffer":0,
			"byteLength":21180,
			"byteOffset":82792,
			"target":34963
		}
	],
	"buffers":[
		{
			"byteLength":103972,
			"uri":"data:application/octet-stream;base64,"
		}
	]
}
