{
	"asset":{
		"generator":"Khronos glTF Blender I/O v3.5.30",
		"version":"2.0"
	},
	"scene":0,
	"scenes":[
		{
			"name":"Scene",
			"nodes":[
				1,
				2,
				3,
				4,
				5,
				6
			]
		}
	],
	"nodes":[
		{
			"mesh":0,
			"name":"finy",
			"rotation":[
				-0.5000000596046448,
				0.4999999403953552,
				-0.5,
				0.5000000596046448
			],
			"scale":[
				0.029999999329447746,
				0.029999999329447746,
				0.0020000000949949026
			],
			"translation":[
				0,
				-0.33669933676719666,
				-0.07429050654172897
			]
		},
		{
			"children":[
				0
			],
			"mesh":1,
			"name":"trup",
			"rotation":[
				0,
				0,
				0.7071066498756409,
				0.70710688829422
			]
		},
		{
			"mesh":2,
			"name":"dr\u00e1\u017eka 1",
			"rotation":[
				-0.6488398313522339,
				0.6564741134643555,
				0.28119993209838867,
				0.2626313269138336
			],
			"scale":[
				0.006621948443353176,
				0.010926556773483753,
				0.002077820710837841
			],
			"translation":[
				0.2679240107536316,
				-0.02298111282289028,
				-0.02356276661157608
			]
		},
		{
			"mesh":3,
			"name":"dr\u00e1\u017eka 2",
			"rotation":[
				-0.6525710225105286,
				0.6517826318740845,
				0.26573026180267334,
				0.2805672883987427
			],
			"scale":[
				0.006621948909014463,
				0.010926556773483753,
				0.002077820710837841
			],
			"translation":[
				0.26811355352401733,
				0.02438444085419178,
				0.024292364716529846
			]
		},
		{
			"mesh":4,
			"name":"dr\u00e1\u017eka 3",
			"rotation":[
				-0.6525710225105286,
				0.6517826318740845,
				0.26573026180267334,
				0.2805672883987427
			],
			"scale":[
				0.006621948909014463,
				0.010926556773483753,
				0.002077820710837841
			],
			"translation":[
				-0.02016875147819519,
				0.02438444085419178,
				0.024292364716529846
			]
		},
		{
			"mesh":5,
			"name":"dr\u00e1\u017eka 4",
			"rotation":[
				-0.6488398313522339,
				0.6564741134643555,
				0.28119993209838867,
				0.2626313269138336
			],
			"scale":[
				0.006621948443353176,
				0.010926556773483753,
				0.002077820710837841
			],
			"translation":[
				-0.020358294248580933,
				-0.02298111282289028,
				-0.02356276661157608
			]
		},
		{
			"mesh":6,
			"name":"motor",
			"rotation":[
				0.6698469519615173,
				0.6755903363227844,
				-0.20837706327438354,
				0.22685210406780243
			],
			"scale":[
				-0.019749896600842476,
				-0.04459074139595032,
				-0.019780173897743225
			],
			"translation":[
				0.3501114845275879,
				-0.000561790366191417,
				-0.00037452683318406343
			]
		}
	],
	"materials":[
		{
			"doubleSided":true,
			"name":"main_pla",
			"pbrMetallicRoughness":{
				"baseColorFactor":[
					0.10405047982931137,
					0.006604041438549757,
					0.8000000715255737,
					1
				],
				"metallicFactor":0,
				"roughnessFactor":0.2752293348312378
			}
		},
		{
			"doubleSided":true,
			"name":"white_pla",
			"pbrMetallicRoughness":{
				"baseColorFactor":[
					0.8000000715255737,
					0.7729566097259521,
					0.7447136640548706,
					1
				],
				"metallicFactor":0,
				"roughnessFactor":0.5
			}
		},
		{
			"doubleSided":true,
			"name":"metal.002",
			"pbrMetallicRoughness":{
				"baseColorFactor":[
					0.40435707569122314,
					0.40435707569122314,
					0.40435707569122314,
					1
				],
				"roughnessFactor":0.5
			}
		},
		{
			"doubleSided":true,
			"name":"Material.001",
			"pbrMetallicRoughness":{
				"baseColorFactor":[
					0.12260907888412476,
					0.12260907888412476,
					0.12260907888412476,
					1
				],
				"metallicFactor":0.7431192398071289,
				"roughnessFactor":0.18807339668273926
			}
		}
	],
	"meshes":[
		{
			"name":"Cube.003",
			"primitives":[
				{
					"attributes":{
						"POSITION":0,
						"TEXCOORD_0":1,
						"NORMAL":2
					},
					"indices":3,
					"material":0
				}
			]
		},
		{
			"name":"Cylinder",
			"primitives":[
				{
					"attributes":{
						"POSITION":4,
						"TEXCOORD_0":5,
						"NORMAL":6
					},
					"indices":7,
					"material":0
				},
				{
					"attributes":{
						"POSITION":8,
						"TEXCOORD_0":9,
						"NORMAL":10
					},
					"indices":11,
					"material":1
				}
			]
		},
		{
			"name":"Cube",
			"primitives":[
				{
					"attributes":{
						"POSITION":12,
						"TEXCOORD_0":13,
						"NORMAL":14
					},
					"indices":15,
					"material":0
				}
			]
		},
		{
			"name":"Cube.001",
			"primitives":[
				{
					"attributes":{
						"POSITION":16,
						"TEXCOORD_0":17,
						"NORMAL":18
					},
					"indices":19,
					"material":0
				}
			]
		},
		{
			"name":"Cube.005",
			"primitives":[
				{
					"attributes":{
						"POSITION":20,
						"TEXCOORD_0":21,
						"NORMAL":22
					},
					"indices":23,
					"material":1
				}
			]
		},
		{
			"name":"Cube.006",
			"primitives":[
				{
					"attributes":{
						"POSITION":24,
						"TEXCOORD_0":25,
						"NORMAL":26
					},
					"indices":27,
					"material":1
				}
			]
		},
		{
			"name":"Cylinder.005",
			"primitives":[
				{
					"attributes":{
						"POSITION":28,
						"TEXCOORD_0":29,
						"NORMAL":30
					},
					"indices":31,
					"material":2
				},
				{
					"attributes":{
						"POSITION":32,
						"TEXCOORD_0":33,
						"NORMAL":34
					},
					"indices":35,
					"material":3
				}
			]
		}
	],
	"accessors":[
		{
			"bufferView":0,
			"componentType":5126,
			"count":192,
			"max":[
				4.058037281036377,
				0.7866788506507874,
				48.9454345703125
			],
			"min":[
				-0.49404263496398926,
				-5.739385604858398,
				-48.94552993774414
			],
			"type":"VEC3"
		},
		{
			"bufferView":1,
			"componentType":5126,
			"count":192,
			"type":"VEC2"
		},
		{
			"bufferView":2,
			"componentType":5126,
			"count":192,
			"type":"VEC3"
		},
		{
			"bufferView":3,
			"componentType":5123,
			"count":288,
			"type":"SCALAR"
		},
		{
			"bufferView":4,
			"componentType":5126,
			"count":1934,
			"max":[
				0.03351983428001404,
				0.21060633659362793,
				0.03351975604891777
			],
			"min":[
				-0.033519670367240906,
				-0.38260000944137573,
				-0.03351974859833717
			],
			"type":"VEC3"
		},
		{
			"bufferView":5,
			"componentType":5126,
			"count":1934,
			"type":"VEC2"
		},
		{
			"bufferView":6,
			"componentType":5126,
			"count":1934,
			"type":"VEC3"
		},
		{
			"bufferView":7,
			"componentType":5123,
			"count":10026,
			"type":"SCALAR"
		},
		{
			"bufferView":8,
			"componentType":5126,
			"count":388,
			"max":[
				0.033360499888658524,
				0.060606449842453,
				0.033360421657562256
			],
			"min":[
				-0.03336033597588539,
				-0.06000000238418579,
				-0.03336041420698166
			],
			"type":"VEC3"
		},
		{
			"bufferView":9,
			"componentType":5126,
			"count":388,
			"type":"VEC2"
		},
		{
			"bufferView":10,
			"componentType":5126,
			"count":388,
			"type":"VEC3"
		},
		{
			"bufferView":11,
			"componentType":5123,
			"count":948,
			"type":"SCALAR"
		},
		{
			"bufferView":12,
			"componentType":5126,
			"count":60,
			"max":[
				1.5043734312057495,
				1,
				2.450094699859619
			],
			"min":[
				-0.8618209362030029,
				-1,
				-2.5284409523010254
			],
			"type":"VEC3"
		},
		{
			"bufferView":13,
			"componentType":5126,
			"count":60,
			"type":"VEC2"
		},
		{
			"bufferView":14,
			"componentType":5126,
			"count":60,
			"type":"VEC3"
		},
		{
			"bufferView":15,
			"componentType":5123,
			"count":120,
			"type":"SCALAR"
		},
		{
			"bufferView":16,
			"componentType":5126,
			"count":66,
			"max":[
				1,
				0.9999980330467224,
				2.2700328826904297
			],
			"min":[
				-1.5081140995025635,
				-1.0000019073486328,
				-2.5735955238342285
			],
			"type":"VEC3"
		},
		{
			"bufferView":17,
			"componentType":5126,
			"count":66,
			"type":"VEC2"
		},
		{
			"bufferView":18,
			"componentType":5126,
			"count":66,
			"type":"VEC3"
		},
		{
			"bufferView":19,
			"componentType":5123,
			"count":132,
			"type":"SCALAR"
		},
		{
			"bufferView":20,
			"componentType":5126,
			"count":60,
			"max":[
				0.33628079295158386,
				1.000000238418579,
				2.2700328826904297
			],
			"min":[
				-1.5081138610839844,
				-0.9999995827674866,
				-2.5735955238342285
			],
			"type":"VEC3"
		},
		{
			"bufferView":21,
			"componentType":5126,
			"count":60,
			"type":"VEC2"
		},
		{
			"bufferView":22,
			"componentType":5126,
			"count":60,
			"type":"VEC3"
		},
		{
			"bufferView":23,
			"componentType":5123,
			"count":120,
			"type":"SCALAR"
		},
		{
			"bufferView":24,
			"componentType":5126,
			"count":60,
			"max":[
				1.5043730735778809,
				1.0000001192092896,
				2.4500956535339355
			],
			"min":[
				-0.13402096927165985,
				-0.9999998807907104,
				-2.528439998626709
			],
			"type":"VEC3"
		},
		{
			"bufferView":25,
			"componentType":5126,
			"count":60,
			"type":"VEC2"
		},
		{
			"bufferView":26,
			"componentType":5126,
			"count":60,
			"type":"VEC3"
		},
		{
			"bufferView":27,
			"componentType":5123,
			"count":120,
			"type":"SCALAR"
		},
		{
			"bufferView":28,
			"componentType":5126,
			"count":228,
			"max":[
				1,
				-0.7167261838912964,
				1
			],
			"min":[
				-1,
				-0.999999463558197,
				-1
			],
			"type":"VEC3"
		},
		{
			"bufferView":29,
			"componentType":5126,
			"count":228,
			"type":"VEC2"
		},
		{
			"bufferView":30,
			"componentType":5126,
			"count":228,
			"type":"VEC3"
		},
		{
			"bufferView":31,
			"componentType":5123,
			"count":666,
			"type":"SCALAR"
		},
		{
			"bufferView":32,
			"componentType":5126,
			"count":32,
			"max":[
				0.364228218793869,
				-0.9297823905944824,
				0.34168776869773865
			],
			"min":[
				-0.34008339047431946,
				-0.9383323192596436,
				-0.36262378096580505
			],
			"type":"VEC3"
		},
		{
			"bufferView":33,
			"componentType":5126,
			"count":32,
			"type":"VEC2"
		},
		{
			"bufferView":34,
			"componentType":5126,
			"count":32,
			"type":"VEC3"
		},
		{
			"bufferView":35,
			"componentType":5123,
			"count":90,
			"type":"SCALAR"
		}
	],
	"bufferViews":[
		{
			"buffer":0,
			"byteLength":2304,
			"byteOffset":0,
			"target":34962
		},
		{
			"buffer":0,
			"byteLength":1536,
			"byteOffset":2304,
			"target":34962
		},
		{
			"buffer":0,
			"byteLength":2304,
			"byteOffset":3840,
			"target":34962
		},
		{
			"buffer":0,
			"byteLength":576,
			"byteOffset":6144,
			"target":34963
		},
		{
			"buffer":0,
			"byteLength":23208,
			"byteOffset":6720,
			"target":34962
		},
		{
			"buffer":0,
			"byteLength":15472,
			"byteOffset":29928,
			"target":34962
		},
		{
			"buffer":0,
			"byteLength":23208,
			"byteOffset":45400,
			"target":34962
		},
		{
			"buffer":0,
			"byteLength":20052,
			"byteOffset":68608,
			"target":34963
		},
		{
			"buffer":0,
			"byteLength":4656,
			"byteOffset":88660,
			"target":34962
		},
		{
			"buffer":0,
			"byteLength":3104,
			"byteOffset":93316,
			"target":34962
		},
		{
			"buffer":0,
			"byteLength":4656,
			"byteOffset":96420,
			"target":34962
		},
		{
			"buffer":0,
			"byteLength":1896,
			"byteOffset":101076,
			"target":34963
		},
		{
			"buffer":0,
			"byteLength":720,
			"byteOffset":102972,
			"target":34962
		},
		{
			"buffer":0,
			"byteLength":480,
			"byteOffset":103692,
			"target":34962
		},
		{
			"buffer":0,
			"byteLength":720,
			"byteOffset":104172,
			"target":34962
		},
		{
			"buffer":0,
			"byteLength":240,
			"byteOffset":104892,
			"target":34963
		},
		{
			"buffer":0,
			"byteLength":792,
			"byteOffset":105132,
			"target":34962
		},
		{
			"buffer":0,
			"byteLength":528,
			"byteOffset":105924,
			"target":34962
		},
		{
			"buffer":0,
			"byteLength":792,
			"byteOffset":106452,
			"target":34962
		},
		{
			"buffer":0,
			"byteLength":264,
			"byteOffset":107244,
			"target":34963
		},
		{
			"buffer":0,
			"byteLength":720,
			"byteOffset":107508,
			"target":34962
		},
		{
			"buffer":0,
			"byteLength":480,
			"byteOffset":108228,
			"target":34962
		},
		{
			"buffer":0,
			"byteLength":720,
			"byteOffset":108708,
			"target":34962
		},
		{
			"buffer":0,
			"byteLength":240,
			"byteOffset":109428,
			"target":34963
		},
		{
			"buffer":0,
			"byteLength":720,
			"byteOffset":109668,
			"target":34962
		},
		{
			"buffer":0,
			"byteLength":480,
			"byteOffset":110388,
			"target":34962
		},
		{
			"buffer":0,
			"byteLength":720,
			"byteOffset":110868,
			"target":34962
		},
		{
			"buffer":0,
			"byteLength":240,
			"byteOffset":111588,
			"target":34963
		},
		{
			"buffer":0,
			"byteLength":2736,
			"byteOffset":111828,
			"target":34962
		},
		{
			"buffer":0,
			"byteLength":1824,
			"byteOffset":114564,
			"target":34962
		},
		{
			"buffer":0,
			"byteLength":2736,
			"byteOffset":116388,
			"target":34962
		},
		{
			"buffer":0,
			"byteLength":1332,
			"byteOffset":119124,
			"target":34963
		},
		{
			"buffer":0,
			"byteLength":384,
			"byteOffset":120456,
			"target":34962
		},
		{
			"buffer":0,
			"byteLength":256,
			"byteOffset":120840,
			"target":34962
		},
		{
			"buffer":0,
			"byteLength":384,
			"byteOffset":121096,
			"target":34962
		},
		{
			"buffer":0,
			"byteLength":180,
			"byteOffset":121480,
			"target":34963
		}
	],
	"buffers":[
		{
			"byteLength":121660,
			"uri":"data:application/octet-stream;base64,"
		}
	]
}
