{
	"asset":{
		"generator":"Khronos glTF Blender I/O v3.5.30",
		"version":"2.0"
	},
	"scene":0,
	"scenes":[
		{
			"name":"Scene",
			"nodes":[
				1,
				2,
				3,
				4
			]
		}
	],
	"nodes":[
		{
			"mesh":0,
			"name":"finy",
			"rotation":[
				-0.5000000596046448,
				0.4999999403953552,
				-0.5,
				0.5000000596046448
			],
			"scale":[
				0.029999999329447746,
				0.029999999329447746,
				0.0020000000949949026
			],
			"translation":[
				0,
				-0.33669933676719666,
				-0.07429050654172897
			]
		},
		{
			"children":[
				0
			],
			"mesh":1,
			"name":"trup",
			"rotation":[
				0,
				0,
				0.7071066498756409,
				0.70710688829422
			]
		},
		{
			"mesh":2,
			"name":"motor",
			"rotation":[
				0.6698469519615173,
				0.6755903363227844,
				-0.20837706327438354,
				0.22685210406780243
			],
			"scale":[
				-0.019749896600842476,
				-0.04459074139595032,
				-0.019780173897743225
			],
			"translation":[
				0.3501114845275879,
				-0.000561790366191417,
				-0.00037452683318406343
			]
		},
		{
			"mesh":3,
			"name":"Cylinder.003",
			"rotation":[
				-0.11133864521980286,
				0.3669136166572571,
				-0.9225074648857117,
				0.04425064101815224
			],
			"scale":[
				-0.014347086660563946,
				-0.12519343197345734,
				-0.014347086660563946
			],
			"translation":[
				0.27028894424438477,
				0.022322075441479683,
				0.023389682173728943
			]
		},
		{
			"mesh":4,
			"name":"Cylinder.002",
			"rotation":[
				-0.11133864521980286,
				0.3669136166572571,
				-0.9225074648857117,
				0.04425064101815224
			],
			"scale":[
				-0.014347086660563946,
				-0.12519343197345734,
				-0.014347086660563946
			],
			"translation":[
				-0.019983991980552673,
				0.02327125333249569,
				0.024576827883720398
			]
		}
	],
	"materials":[
		{
			"doubleSided":true,
			"name":"main_pla",
			"pbrMetallicRoughness":{
				"baseColorFactor":[
					0.10405047982931137,
					0.006604041438549757,
					0.8000000715255737,
					1
				],
				"metallicFactor":0,
				"roughnessFactor":0.2752293348312378
			}
		},
		{
			"doubleSided":true,
			"name":"white_pla",
			"pbrMetallicRoughness":{
				"baseColorFactor":[
					0.8000000715255737,
					0.7729566097259521,
					0.7447136640548706,
					1
				],
				"metallicFactor":0,
				"roughnessFactor":0.5
			}
		},
		{
			"doubleSided":true,
			"name":"metal.002",
			"pbrMetallicRoughness":{
				"baseColorFactor":[
					0.40435707569122314,
					0.40435707569122314,
					0.40435707569122314,
					1
				],
				"roughnessFactor":0.5
			}
		},
		{
			"doubleSided":true,
			"name":"Material.001",
			"pbrMetallicRoughness":{
				"baseColorFactor":[
					0.12260907888412476,
					0.12260907888412476,
					0.12260907888412476,
					1
				],
				"metallicFactor":0.7431192398071289,
				"roughnessFactor":0.18807339668273926
			}
		},
		{
			"doubleSided":true,
			"name":"Material.007",
			"pbrMetallicRoughness":{
				"baseColorFactor":[
					0.800000011920929,
					0.800000011920929,
					0.800000011920929,
					1
				],
				"metallicFactor":0,
				"roughnessFactor":0.5
			}
		}
	],
	"meshes":[
		{
			"name":"Cube.003",
			"primitives":[
				{
					"attributes":{
						"POSITION":0,
						"TEXCOORD_0":1,
						"NORMAL":2
					},
					"indices":3,
					"material":0
				}
			]
		},
		{
			"name":"Cylinder",
			"primitives":[
				{
					"attributes":{
						"POSITION":4,
						"TEXCOORD_0":5,
						"NORMAL":6
					},
					"indices":7,
					"material":0
				},
				{
					"attributes":{
						"POSITION":8,
						"TEXCOORD_0":9,
						"NORMAL":10
					},
					"indices":11,
					"material":1
				}
			]
		},
		{
			"name":"Cylinder.005",
			"primitives":[
				{
					"attributes":{
						"POSITION":12,
						"TEXCOORD_0":13,
						"NORMAL":14
					},
					"indices":15,
					"material":2
				},
				{
					"attributes":{
						"POSITION":16,
						"TEXCOORD_0":17,
						"NORMAL":18
					},
					"indices":19,
					"material":3
				}
			]
		},
		{
			"name":"Cylinder.004",
			"primitives":[
				{
					"attributes":{
						"POSITION":20,
						"TEXCOORD_0":21,
						"NORMAL":22
					},
					"indices":23,
					"material":0
				}
			]
		},
		{
			"name":"Cylinder.008",
			"primitives":[
				{
					"attributes":{
						"POSITION":24,
						"TEXCOORD_0":25,
						"NORMAL":26
					},
					"indices":23,
					"material":4
				}
			]
		}
	],
	"accessors":[
		{
			"bufferView":0,
			"componentType":5126,
			"count":192,
			"max":[
				4.058037281036377,
				0.7866788506507874,
				48.9454345703125
			],
			"min":[
				-0.49404263496398926,
				-5.739385604858398,
				-48.94552993774414
			],
			"type":"VEC3"
		},
		{
			"bufferView":1,
			"componentType":5126,
			"count":192,
			"type":"VEC2"
		},
		{
			"bufferView":2,
			"componentType":5126,
			"count":192,
			"type":"VEC3"
		},
		{
			"bufferView":3,
			"componentType":5123,
			"count":288,
			"type":"SCALAR"
		},
		{
			"bufferView":4,
			"componentType":5126,
			"count":1934,
			"max":[
				0.029665164649486542,
				0.2083948254585266,
				0.031200259923934937
			],
			"min":[
				-0.028864702209830284,
				-0.38260000944137573,
				-0.0280391164124012
			],
			"type":"VEC3"
		},
		{
			"bufferView":5,
			"componentType":5126,
			"count":1934,
			"type":"VEC2"
		},
		{
			"bufferView":6,
			"componentType":5126,
			"count":1934,
			"type":"VEC3"
		},
		{
			"bufferView":7,
			"componentType":5123,
			"count":10026,
			"type":"SCALAR"
		},
		{
			"bufferView":8,
			"componentType":5126,
			"count":388,
			"max":[
				0.029525969177484512,
				0.05291294306516647,
				0.03107091784477234
			],
			"min":[
				-0.028725454583764076,
				-0.052383240312337875,
				-0.02717987820506096
			],
			"type":"VEC3"
		},
		{
			"bufferView":9,
			"componentType":5126,
			"count":388,
			"type":"VEC2"
		},
		{
			"bufferView":10,
			"componentType":5126,
			"count":388,
			"type":"VEC3"
		},
		{
			"bufferView":11,
			"componentType":5123,
			"count":948,
			"type":"SCALAR"
		},
		{
			"bufferView":12,
			"componentType":5126,
			"count":228,
			"max":[
				1,
				-0.7167261838912964,
				1
			],
			"min":[
				-1,
				-0.999999463558197,
				-1
			],
			"type":"VEC3"
		},
		{
			"bufferView":13,
			"componentType":5126,
			"count":228,
			"type":"VEC2"
		},
		{
			"bufferView":14,
			"componentType":5126,
			"count":228,
			"type":"VEC3"
		},
		{
			"bufferView":15,
			"componentType":5123,
			"count":666,
			"type":"SCALAR"
		},
		{
			"bufferView":16,
			"componentType":5126,
			"count":32,
			"max":[
				0.364228218793869,
				-0.9297823905944824,
				0.34168776869773865
			],
			"min":[
				-0.34008339047431946,
				-0.9383323192596436,
				-0.36262378096580505
			],
			"type":"VEC3"
		},
		{
			"bufferView":17,
			"componentType":5126,
			"count":32,
			"type":"VEC2"
		},
		{
			"bufferView":18,
			"componentType":5126,
			"count":32,
			"type":"VEC3"
		},
		{
			"bufferView":19,
			"componentType":5123,
			"count":90,
			"type":"SCALAR"
		},
		{
			"bufferView":20,
			"componentType":5126,
			"count":520,
			"max":[
				0.5939157605171204,
				0.039251312613487244,
				0.7793108224868774
			],
			"min":[
				-0.5615140199661255,
				-0.5550820231437683,
				-0.5503064393997192
			],
			"type":"VEC3"
		},
		{
			"bufferView":21,
			"componentType":5126,
			"count":520,
			"type":"VEC2"
		},
		{
			"bufferView":22,
			"componentType":5126,
			"count":520,
			"type":"VEC3"
		},
		{
			"bufferView":23,
			"componentType":5123,
			"count":1512,
			"type":"SCALAR"
		},
		{
			"bufferView":24,
			"componentType":5126,
			"count":520,
			"max":[
				0.5939157605171204,
				0.039251312613487244,
				0.7793108224868774
			],
			"min":[
				-0.5615140199661255,
				-0.5550820231437683,
				-0.5503064393997192
			],
			"type":"VEC3"
		},
		{
			"bufferView":25,
			"componentType":5126,
			"count":520,
			"type":"VEC2"
		},
		{
			"bufferView":26,
			"componentType":5126,
			"count":520,
			"type":"VEC3"
		}
	],
	"bufferViews":[
		{
			"buffer":0,
			"byteLength":2304,
			"byteOffset":0,
			"target":34962
		},
		{
			"buffer":0,
			"byteLength":1536,
			"byteOffset":2304,
			"target":34962
		},
		{
			"buffer":0,
			"byteLength":2304,
			"byteOffset":3840,
			"target":34962
		},
		{
			"buffer":0,
			"byteLength":576,
			"byteOffset":6144,
			"target":34963
		},
		{
			"buffer":0,
			"byteLength":23208,
			"byteOffset":6720,
			"target":34962
		},
		{
			"buffer":0,
			"byteLength":15472,
			"byteOffset":29928,
			"target":34962
		},
		{
			"buffer":0,
			"byteLength":23208,
			"byteOffset":45400,
			"target":34962
		},
		{
			"buffer":0,
			"byteLength":20052,
			"byteOffset":68608,
			"target":34963
		},
		{
			"buffer":0,
			"byteLength":4656,
			"byteOffset":88660,
			"target":34962
		},
		{
			"buffer":0,
			"byteLength":3104,
			"byteOffset":93316,
			"target":34962
		},
		{
			"buffer":0,
			"byteLength":4656,
			"byteOffset":96420,
			"target":34962
		},
		{
			"buffer":0,
			"byteLength":1896,
			"byteOffset":101076,
			"target":34963
		},
		{
			"buffer":0,
			"byteLength":2736,
			"byteOffset":102972,
			"target":34962
		},
		{
			"buffer":0,
			"byteLength":1824,
			"byteOffset":105708,
			"target":34962
		},
		{
			"buffer":0,
			"byteLength":2736,
			"byteOffset":107532,
			"target":34962
		},
		{
			"buffer":0,
			"byteLength":1332,
			"byteOffset":110268,
			"target":34963
		},
		{
			"buffer":0,
			"byteLength":384,
			"byteOffset":111600,
			"target":34962
		},
		{
			"buffer":0,
			"byteLength":256,
			"byteOffset":111984,
			"target":34962
		},
		{
			"buffer":0,
			"byteLength":384,
			"byteOffset":112240,
			"target":34962
		},
		{
			"buffer":0,
			"byteLength":180,
			"byteOffset":112624,
			"target":34963
		},
		{
			"buffer":0,
			"byteLength":6240,
			"byteOffset":112804,
			"target":34962
		},
		{
			"buffer":0,
			"byteLength":4160,
			"byteOffset":119044,
			"target":34962
		},
		{
			"buffer":0,
			"byteLength":6240,
			"byteOffset":123204,
			"target":34962
		},
		{
			"buffer":0,
			"byteLength":3024,
			"byteOffset":129444,
			"target":34963
		},
		{
			"buffer":0,
			"byteLength":6240,
			"byteOffset":132468,
			"target":34962
		},
		{
			"buffer":0,
			"byteLength":4160,
			"byteOffset":138708,
			"target":34962
		},
		{
			"buffer":0,
			"byteLength":6240,
			"byteOffset":142868,
			"target":34962
		}
	],
	"buffers":[
		{
			"byteLength":149108,
			"uri":"data:application/octet-stream;base64,"
		}
	]
}
